solid CATIA STL
  facet normal  0.000000e+000  0.000000e+000  1.000000e+000
    outer loop
      vertex  1.500000e+001 -2.978571e+001  5.901601e+001
      vertex  1.500000e+001  3.166409e+001  5.901601e+001
      vertex  5.000000e+000 -2.978571e+001  5.901601e+001
    endloop
  endfacet
  facet normal  0.000000e+000  0.000000e+000  1.000000e+000
    outer loop
      vertex  5.000000e+000 -2.978571e+001  5.901601e+001
      vertex  1.500000e+001  3.166409e+001  5.901601e+001
      vertex  5.000000e+000  3.166409e+001  5.901601e+001
    endloop
  endfacet
  facet normal  0.000000e+000  1.000000e+000  0.000000e+000
    outer loop
      vertex  1.500000e+001  3.166409e+001 -3.519549e+001
      vertex  5.000000e+000  3.166409e+001 -3.519549e+001
      vertex  1.500000e+001  3.166409e+001  5.901601e+001
    endloop
  endfacet
  facet normal  0.000000e+000  1.000000e+000  0.000000e+000
    outer loop
      vertex  1.500000e+001  3.166409e+001  5.901601e+001
      vertex  5.000000e+000  3.166409e+001 -3.519549e+001
      vertex  5.000000e+000  3.166409e+001  5.901601e+001
    endloop
  endfacet
  facet normal  0.000000e+000  0.000000e+000 -1.000000e+000
    outer loop
      vertex  1.500000e+001  3.166409e+001 -3.519549e+001
      vertex  1.500000e+001 -2.978571e+001 -3.519549e+001
      vertex  5.000000e+000  3.166409e+001 -3.519549e+001
    endloop
  endfacet
  facet normal  0.000000e+000  0.000000e+000 -1.000000e+000
    outer loop
      vertex  5.000000e+000  3.166409e+001 -3.519549e+001
      vertex  1.500000e+001 -2.978571e+001 -3.519549e+001
      vertex  5.000000e+000 -2.978571e+001 -3.519549e+001
    endloop
  endfacet
  facet normal  0.000000e+000 -1.000000e+000  0.000000e+000
    outer loop
      vertex  1.500000e+001 -2.978571e+001  5.901601e+001
      vertex  5.000000e+000 -2.978571e+001  5.901601e+001
      vertex  1.500000e+001 -2.978571e+001 -3.519549e+001
    endloop
  endfacet
  facet normal  0.000000e+000 -1.000000e+000  0.000000e+000
    outer loop
      vertex  1.500000e+001 -2.978571e+001 -3.519549e+001
      vertex  5.000000e+000 -2.978571e+001  5.901601e+001
      vertex  5.000000e+000 -2.978571e+001 -3.519549e+001
    endloop
  endfacet
  facet normal -1.000000e+000  0.000000e+000  0.000000e+000
    outer loop
      vertex  0.000000e+000 -2.478571e+001 -3.019549e+001
      vertex  0.000000e+000 -2.478571e+001  5.401601e+001
      vertex  0.000000e+000  2.666409e+001 -3.019549e+001
    endloop
  endfacet
  facet normal -1.000000e+000  0.000000e+000  0.000000e+000
    outer loop
      vertex  0.000000e+000  2.666409e+001 -3.019549e+001
      vertex  0.000000e+000 -2.478571e+001  5.401601e+001
      vertex  0.000000e+000  2.666409e+001  5.401601e+001
    endloop
  endfacet
  facet normal -9.877855e-001 -1.558199e-001  0.000000e+000
    outer loop
      vertex  0.000000e+000 -2.478571e+001  5.401601e+001
      vertex  0.000000e+000 -2.478571e+001 -3.019549e+001
      vertex  2.427986e-001 -2.632487e+001  5.555518e+001
    endloop
  endfacet
  facet normal -9.877855e-001 -1.558199e-001  -0.000000e+000
    outer loop
      vertex  2.427986e-001 -2.632487e+001  5.555518e+001
      vertex  0.000000e+000 -2.478571e+001 -3.019549e+001
      vertex  2.427986e-001 -2.632487e+001 -3.173466e+001
    endloop
  endfacet
  facet normal -8.889728e-001 -4.579602e-001  0.000000e+000
    outer loop
      vertex  2.427986e-001 -2.632487e+001  5.555518e+001
      vertex  2.427986e-001 -2.632487e+001 -3.173466e+001
      vertex  9.849977e-001 -2.776560e+001  5.699591e+001
    endloop
  endfacet
  facet normal -8.889727e-001 -4.579602e-001  -0.000000e+000
    outer loop
      vertex  9.849977e-001 -2.776560e+001  5.699591e+001
      vertex  2.427986e-001 -2.632487e+001 -3.173466e+001
      vertex  9.849977e-001 -2.776560e+001 -3.317538e+001
    endloop
  endfacet
  facet normal -7.284220e-001 -6.851287e-001  0.000000e+000
    outer loop
      vertex  9.849977e-001 -2.776560e+001  5.699591e+001
      vertex  9.849977e-001 -2.776560e+001 -3.317538e+001
      vertex  1.779979e+000 -2.861082e+001  5.784113e+001
    endloop
  endfacet
  facet normal -7.284220e-001 -6.851287e-001  -0.000000e+000
    outer loop
      vertex  1.779979e+000 -2.861082e+001  5.784113e+001
      vertex  9.849977e-001 -2.776560e+001 -3.317538e+001
      vertex  1.779979e+000 -2.861082e+001 -3.402060e+001
    endloop
  endfacet
  facet normal -5.424538e-001 -8.400856e-001  0.000000e+000
    outer loop
      vertex  1.779979e+000 -2.861082e+001  5.784113e+001
      vertex  1.779979e+000 -2.861082e+001 -3.402060e+001
      vertex  2.838737e+000 -2.929447e+001  5.852478e+001
    endloop
  endfacet
  facet normal -5.424538e-001 -8.400856e-001  -0.000000e+000
    outer loop
      vertex  2.838737e+000 -2.929447e+001  5.852478e+001
      vertex  1.779979e+000 -2.861082e+001 -3.402060e+001
      vertex  2.838737e+000 -2.929447e+001 -3.470425e+001
    endloop
  endfacet
  facet normal -2.216389e-001 -9.751288e-001  0.000000e+000
    outer loop
      vertex  2.838737e+000 -2.929447e+001  5.852478e+001
      vertex  2.838737e+000 -2.929447e+001 -3.470425e+001
      vertex  5.000000e+000 -2.978571e+001  5.901601e+001
    endloop
  endfacet
  facet normal -2.216389e-001 -9.751288e-001  -0.000000e+000
    outer loop
      vertex  5.000000e+000 -2.978571e+001  5.901601e+001
      vertex  2.838737e+000 -2.929447e+001 -3.470425e+001
      vertex  5.000000e+000 -2.978571e+001 -3.519549e+001
    endloop
  endfacet
  facet normal -2.216389e-001  0.000000e+000  9.751288e-001
    outer loop
      vertex  5.000000e+000 -2.978571e+001  5.901601e+001
      vertex  5.000000e+000  3.166409e+001  5.901601e+001
      vertex  2.838737e+000 -2.929447e+001  5.852478e+001
    endloop
  endfacet
  facet normal -2.216389e-001  0.000000e+000  9.751288e-001
    outer loop
      vertex  2.838737e+000 -2.929447e+001  5.852478e+001
      vertex  5.000000e+000  3.166409e+001  5.901601e+001
      vertex  2.838737e+000  3.117285e+001  5.852478e+001
    endloop
  endfacet
  facet normal -5.424528e-001  0.000000e+000  8.400863e-001
    outer loop
      vertex  2.838737e+000 -2.929447e+001  5.852478e+001
      vertex  2.838737e+000  3.117285e+001  5.852478e+001
      vertex  1.779979e+000 -2.861082e+001  5.784113e+001
    endloop
  endfacet
  facet normal -5.424528e-001  0.000000e+000  8.400863e-001
    outer loop
      vertex  1.779979e+000 -2.861082e+001  5.784113e+001
      vertex  2.838737e+000  3.117285e+001  5.852478e+001
      vertex  1.779979e+000  3.048919e+001  5.784113e+001
    endloop
  endfacet
  facet normal -7.284229e-001  0.000000e+000  6.851279e-001
    outer loop
      vertex  1.779979e+000 -2.861082e+001  5.784113e+001
      vertex  1.779979e+000  3.048919e+001  5.784113e+001
      vertex  9.849977e-001 -2.776560e+001  5.699591e+001
    endloop
  endfacet
  facet normal -7.284228e-001  0.000000e+000  6.851279e-001
    outer loop
      vertex  9.849977e-001 -2.776560e+001  5.699591e+001
      vertex  1.779979e+000  3.048919e+001  5.784113e+001
      vertex  9.849977e-001  2.964398e+001  5.699591e+001
    endloop
  endfacet
  facet normal -8.889729e-001  0.000000e+000  4.579596e-001
    outer loop
      vertex  9.849977e-001 -2.776560e+001  5.699591e+001
      vertex  9.849977e-001  2.964398e+001  5.699591e+001
      vertex  2.427986e-001 -2.632487e+001  5.555518e+001
    endloop
  endfacet
  facet normal -8.889729e-001  0.000000e+000  4.579597e-001
    outer loop
      vertex  2.427986e-001 -2.632487e+001  5.555518e+001
      vertex  9.849977e-001  2.964398e+001  5.699591e+001
      vertex  2.427986e-001  2.820325e+001  5.555518e+001
    endloop
  endfacet
  facet normal -9.877855e-001  0.000000e+000  1.558201e-001
    outer loop
      vertex  2.427986e-001 -2.632487e+001  5.555518e+001
      vertex  2.427986e-001  2.820325e+001  5.555518e+001
      vertex  0.000000e+000 -2.478571e+001  5.401601e+001
    endloop
  endfacet
  facet normal -9.877855e-001  0.000000e+000  1.558201e-001
    outer loop
      vertex  0.000000e+000 -2.478571e+001  5.401601e+001
      vertex  2.427986e-001  2.820325e+001  5.555518e+001
      vertex  0.000000e+000  2.666409e+001  5.401601e+001
    endloop
  endfacet
  facet normal -9.877855e-001  1.558199e-001  0.000000e+000
    outer loop
      vertex  0.000000e+000  2.666409e+001 -3.019549e+001
      vertex  0.000000e+000  2.666409e+001  5.401601e+001
      vertex  2.427986e-001  2.820325e+001 -3.173466e+001
    endloop
  endfacet
  facet normal -9.877855e-001  1.558199e-001  0.000000e+000
    outer loop
      vertex  2.427986e-001  2.820325e+001 -3.173466e+001
      vertex  0.000000e+000  2.666409e+001  5.401601e+001
      vertex  2.427986e-001  2.820325e+001  5.555518e+001
    endloop
  endfacet
  facet normal -8.889728e-001  4.579602e-001  0.000000e+000
    outer loop
      vertex  2.427986e-001  2.820325e+001 -3.173466e+001
      vertex  2.427986e-001  2.820325e+001  5.555518e+001
      vertex  9.849977e-001  2.964398e+001 -3.317538e+001
    endloop
  endfacet
  facet normal -8.889727e-001  4.579602e-001  0.000000e+000
    outer loop
      vertex  9.849977e-001  2.964398e+001 -3.317538e+001
      vertex  2.427986e-001  2.820325e+001  5.555518e+001
      vertex  9.849977e-001  2.964398e+001  5.699591e+001
    endloop
  endfacet
  facet normal -7.284220e-001  6.851287e-001  0.000000e+000
    outer loop
      vertex  9.849977e-001  2.964398e+001 -3.317538e+001
      vertex  9.849977e-001  2.964398e+001  5.699591e+001
      vertex  1.779979e+000  3.048919e+001 -3.402060e+001
    endloop
  endfacet
  facet normal -7.284220e-001  6.851287e-001  0.000000e+000
    outer loop
      vertex  1.779979e+000  3.048919e+001 -3.402060e+001
      vertex  9.849977e-001  2.964398e+001  5.699591e+001
      vertex  1.779979e+000  3.048919e+001  5.784113e+001
    endloop
  endfacet
  facet normal -5.424538e-001  8.400856e-001  0.000000e+000
    outer loop
      vertex  1.779979e+000  3.048919e+001 -3.402060e+001
      vertex  1.779979e+000  3.048919e+001  5.784113e+001
      vertex  2.838737e+000  3.117285e+001 -3.470425e+001
    endloop
  endfacet
  facet normal -5.424538e-001  8.400856e-001  0.000000e+000
    outer loop
      vertex  2.838737e+000  3.117285e+001 -3.470425e+001
      vertex  1.779979e+000  3.048919e+001  5.784113e+001
      vertex  2.838737e+000  3.117285e+001  5.852478e+001
    endloop
  endfacet
  facet normal -2.216389e-001  9.751288e-001  0.000000e+000
    outer loop
      vertex  2.838737e+000  3.117285e+001 -3.470425e+001
      vertex  2.838737e+000  3.117285e+001  5.852478e+001
      vertex  5.000000e+000  3.166409e+001 -3.519549e+001
    endloop
  endfacet
  facet normal -2.216389e-001  9.751288e-001  0.000000e+000
    outer loop
      vertex  5.000000e+000  3.166409e+001 -3.519549e+001
      vertex  2.838737e+000  3.117285e+001  5.852478e+001
      vertex  5.000000e+000  3.166409e+001  5.901601e+001
    endloop
  endfacet
  facet normal -2.216389e-001  0.000000e+000 -9.751288e-001
    outer loop
      vertex  5.000000e+000  3.166409e+001 -3.519549e+001
      vertex  5.000000e+000 -2.978571e+001 -3.519549e+001
      vertex  2.838737e+000  3.117285e+001 -3.470425e+001
    endloop
  endfacet
  facet normal -2.216389e-001  -0.000000e+000 -9.751288e-001
    outer loop
      vertex  2.838737e+000  3.117285e+001 -3.470425e+001
      vertex  5.000000e+000 -2.978571e+001 -3.519549e+001
      vertex  2.838737e+000 -2.929447e+001 -3.470425e+001
    endloop
  endfacet
  facet normal -5.424528e-001  0.000000e+000 -8.400863e-001
    outer loop
      vertex  2.838737e+000  3.117285e+001 -3.470425e+001
      vertex  2.838737e+000 -2.929447e+001 -3.470425e+001
      vertex  1.779979e+000  3.048919e+001 -3.402060e+001
    endloop
  endfacet
  facet normal -5.424528e-001  -0.000000e+000 -8.400863e-001
    outer loop
      vertex  1.779979e+000  3.048919e+001 -3.402060e+001
      vertex  2.838737e+000 -2.929447e+001 -3.470425e+001
      vertex  1.779979e+000 -2.861082e+001 -3.402060e+001
    endloop
  endfacet
  facet normal -7.284229e-001  0.000000e+000 -6.851279e-001
    outer loop
      vertex  1.779979e+000  3.048919e+001 -3.402060e+001
      vertex  1.779979e+000 -2.861082e+001 -3.402060e+001
      vertex  9.849977e-001  2.964398e+001 -3.317538e+001
    endloop
  endfacet
  facet normal -7.284228e-001  -0.000000e+000 -6.851279e-001
    outer loop
      vertex  9.849977e-001  2.964398e+001 -3.317538e+001
      vertex  1.779979e+000 -2.861082e+001 -3.402060e+001
      vertex  9.849977e-001 -2.776560e+001 -3.317538e+001
    endloop
  endfacet
  facet normal -8.889728e-001  0.000000e+000 -4.579602e-001
    outer loop
      vertex  9.849977e-001  2.964398e+001 -3.317538e+001
      vertex  9.849977e-001 -2.776560e+001 -3.317538e+001
      vertex  2.427986e-001  2.820325e+001 -3.173466e+001
    endloop
  endfacet
  facet normal -8.889727e-001  -0.000000e+000 -4.579601e-001
    outer loop
      vertex  2.427986e-001  2.820325e+001 -3.173466e+001
      vertex  9.849977e-001 -2.776560e+001 -3.317538e+001
      vertex  2.427986e-001 -2.632487e+001 -3.173466e+001
    endloop
  endfacet
  facet normal -9.877855e-001  0.000000e+000 -1.558199e-001
    outer loop
      vertex  2.427986e-001  2.820325e+001 -3.173466e+001
      vertex  2.427986e-001 -2.632487e+001 -3.173466e+001
      vertex  0.000000e+000  2.666409e+001 -3.019549e+001
    endloop
  endfacet
  facet normal -9.877855e-001  -0.000000e+000 -1.558199e-001
    outer loop
      vertex  0.000000e+000  2.666409e+001 -3.019549e+001
      vertex  2.427986e-001 -2.632487e+001 -3.173466e+001
      vertex  0.000000e+000 -2.478571e+001 -3.019549e+001
    endloop
  endfacet
  facet normal  1.000000e+000  0.000000e+000  0.000000e+000
    outer loop
      vertex  2.000000e+001 -2.478571e+001 -3.019549e+001
      vertex  2.000000e+001  2.666409e+001 -3.019549e+001
      vertex  2.000000e+001 -2.478571e+001  5.401601e+001
    endloop
  endfacet
  facet normal  1.000000e+000  -0.000000e+000  0.000000e+000
    outer loop
      vertex  2.000000e+001 -2.478571e+001  5.401601e+001
      vertex  2.000000e+001  2.666409e+001 -3.019549e+001
      vertex  2.000000e+001  2.666409e+001  5.401601e+001
    endloop
  endfacet
  facet normal  2.216390e-001  9.751289e-001  0.000000e+000
    outer loop
      vertex  1.500000e+001  3.166409e+001 -3.519549e+001
      vertex  1.500000e+001  3.166409e+001  5.901601e+001
      vertex  1.716126e+001  3.117285e+001 -3.470425e+001
    endloop
  endfacet
  facet normal  2.216390e-001  9.751288e-001  -0.000000e+000
    outer loop
      vertex  1.716126e+001  3.117285e+001 -3.470425e+001
      vertex  1.500000e+001  3.166409e+001  5.901601e+001
      vertex  1.716126e+001  3.117285e+001  5.852478e+001
    endloop
  endfacet
  facet normal  5.784981e-001  8.156838e-001  0.000000e+000
    outer loop
      vertex  1.716126e+001  3.117285e+001 -3.470425e+001
      vertex  1.716126e+001  3.117285e+001  5.852478e+001
      vertex  1.854043e+001  3.019472e+001 -3.372613e+001
    endloop
  endfacet
  facet normal  5.784981e-001  8.156838e-001  -0.000000e+000
    outer loop
      vertex  1.854043e+001  3.019472e+001 -3.372613e+001
      vertex  1.716126e+001  3.117285e+001  5.852478e+001
      vertex  1.854043e+001  3.019472e+001  5.754665e+001
    endloop
  endfacet
  facet normal  8.073969e-001  5.900087e-001  0.000000e+000
    outer loop
      vertex  1.854043e+001  3.019472e+001 -3.372613e+001
      vertex  1.854043e+001  3.019472e+001  5.754665e+001
      vertex  1.943930e+001  2.896466e+001 -3.249607e+001
    endloop
  endfacet
  facet normal  8.073969e-001  5.900086e-001  -0.000000e+000
    outer loop
      vertex  1.943930e+001  2.896466e+001 -3.249607e+001
      vertex  1.854043e+001  3.019472e+001  5.754665e+001
      vertex  1.943930e+001  2.896466e+001  5.631659e+001
    endloop
  endfacet
  facet normal  9.715604e-001  2.367917e-001  0.000000e+000
    outer loop
      vertex  1.943930e+001  2.896466e+001 -3.249607e+001
      vertex  1.943930e+001  2.896466e+001  5.631659e+001
      vertex  2.000000e+001  2.666409e+001 -3.019549e+001
    endloop
  endfacet
  facet normal  9.715604e-001  2.367917e-001  -0.000000e+000
    outer loop
      vertex  2.000000e+001  2.666409e+001 -3.019549e+001
      vertex  1.943930e+001  2.896466e+001  5.631659e+001
      vertex  2.000000e+001  2.666409e+001  5.401601e+001
    endloop
  endfacet
  facet normal  9.715604e-001  0.000000e+000 -2.367917e-001
    outer loop
      vertex  2.000000e+001  2.666409e+001 -3.019549e+001
      vertex  2.000000e+001 -2.478571e+001 -3.019549e+001
      vertex  1.943930e+001  2.896466e+001 -3.249607e+001
    endloop
  endfacet
  facet normal  9.715605e-001  0.000000e+000 -2.367917e-001
    outer loop
      vertex  1.943930e+001  2.896466e+001 -3.249607e+001
      vertex  2.000000e+001 -2.478571e+001 -3.019549e+001
      vertex  1.943930e+001 -2.708628e+001 -3.249607e+001
    endloop
  endfacet
  facet normal  8.073973e-001  0.000000e+000 -5.900081e-001
    outer loop
      vertex  1.943930e+001  2.896466e+001 -3.249607e+001
      vertex  1.943930e+001 -2.708628e+001 -3.249607e+001
      vertex  1.854043e+001  3.019472e+001 -3.372613e+001
    endloop
  endfacet
  facet normal  8.073965e-001 -3.846634e-008 -5.900092e-001
    outer loop
      vertex  1.854043e+001  3.019472e+001 -3.372613e+001
      vertex  1.943930e+001 -2.708628e+001 -3.249607e+001
      vertex  1.854043e+001 -2.831634e+001 -3.372612e+001
    endloop
  endfacet
  facet normal  5.784972e-001 -5.317949e-008 -8.156843e-001
    outer loop
      vertex  1.854043e+001  3.019472e+001 -3.372613e+001
      vertex  1.854043e+001 -2.831634e+001 -3.372612e+001
      vertex  1.716126e+001  3.117285e+001 -3.470425e+001
    endloop
  endfacet
  facet normal  5.784988e-001  0.000000e+000 -8.156832e-001
    outer loop
      vertex  1.716126e+001  3.117285e+001 -3.470425e+001
      vertex  1.854043e+001 -2.831634e+001 -3.372612e+001
      vertex  1.716126e+001 -2.929447e+001 -3.470425e+001
    endloop
  endfacet
  facet normal  2.216390e-001  0.000000e+000 -9.751288e-001
    outer loop
      vertex  1.716126e+001  3.117285e+001 -3.470425e+001
      vertex  1.716126e+001 -2.929447e+001 -3.470425e+001
      vertex  1.500000e+001  3.166409e+001 -3.519549e+001
    endloop
  endfacet
  facet normal  2.216390e-001  0.000000e+000 -9.751288e-001
    outer loop
      vertex  1.500000e+001  3.166409e+001 -3.519549e+001
      vertex  1.716126e+001 -2.929447e+001 -3.470425e+001
      vertex  1.500000e+001 -2.978571e+001 -3.519549e+001
    endloop
  endfacet
  facet normal  2.216390e-001 -9.751289e-001  0.000000e+000
    outer loop
      vertex  1.500000e+001 -2.978571e+001  5.901601e+001
      vertex  1.500000e+001 -2.978571e+001 -3.519549e+001
      vertex  1.716126e+001 -2.929447e+001  5.852478e+001
    endloop
  endfacet
  facet normal  2.216390e-001 -9.751288e-001  0.000000e+000
    outer loop
      vertex  1.716126e+001 -2.929447e+001  5.852478e+001
      vertex  1.500000e+001 -2.978571e+001 -3.519549e+001
      vertex  1.716126e+001 -2.929447e+001 -3.470425e+001
    endloop
  endfacet
  facet normal  5.784981e-001 -8.156838e-001  0.000000e+000
    outer loop
      vertex  1.716126e+001 -2.929447e+001  5.852478e+001
      vertex  1.716126e+001 -2.929447e+001 -3.470425e+001
      vertex  1.854043e+001 -2.831634e+001  5.754665e+001
    endloop
  endfacet
  facet normal  5.784981e-001 -8.156838e-001  0.000000e+000
    outer loop
      vertex  1.854043e+001 -2.831634e+001  5.754665e+001
      vertex  1.716126e+001 -2.929447e+001 -3.470425e+001
      vertex  1.854043e+001 -2.831634e+001 -3.372612e+001
    endloop
  endfacet
  facet normal  8.073969e-001 -5.900087e-001  0.000000e+000
    outer loop
      vertex  1.854043e+001 -2.831634e+001  5.754665e+001
      vertex  1.854043e+001 -2.831634e+001 -3.372612e+001
      vertex  1.943930e+001 -2.708628e+001  5.631659e+001
    endloop
  endfacet
  facet normal  8.073969e-001 -5.900086e-001  0.000000e+000
    outer loop
      vertex  1.943930e+001 -2.708628e+001  5.631659e+001
      vertex  1.854043e+001 -2.831634e+001 -3.372612e+001
      vertex  1.943930e+001 -2.708628e+001 -3.249607e+001
    endloop
  endfacet
  facet normal  9.715604e-001 -2.367917e-001  0.000000e+000
    outer loop
      vertex  1.943930e+001 -2.708628e+001  5.631659e+001
      vertex  1.943930e+001 -2.708628e+001 -3.249607e+001
      vertex  2.000000e+001 -2.478571e+001  5.401601e+001
    endloop
  endfacet
  facet normal  9.715604e-001 -2.367917e-001  0.000000e+000
    outer loop
      vertex  2.000000e+001 -2.478571e+001  5.401601e+001
      vertex  1.943930e+001 -2.708628e+001 -3.249607e+001
      vertex  2.000000e+001 -2.478571e+001 -3.019549e+001
    endloop
  endfacet
  facet normal  9.715604e-001  0.000000e+000  2.367917e-001
    outer loop
      vertex  2.000000e+001 -2.478571e+001  5.401601e+001
      vertex  2.000000e+001  2.666409e+001  5.401601e+001
      vertex  1.943930e+001 -2.708628e+001  5.631659e+001
    endloop
  endfacet
  facet normal  9.715605e-001  -0.000000e+000  2.367917e-001
    outer loop
      vertex  1.943930e+001 -2.708628e+001  5.631659e+001
      vertex  2.000000e+001  2.666409e+001  5.401601e+001
      vertex  1.943930e+001  2.896466e+001  5.631659e+001
    endloop
  endfacet
  facet normal  8.073973e-001  0.000000e+000  5.900081e-001
    outer loop
      vertex  1.943930e+001 -2.708628e+001  5.631659e+001
      vertex  1.943930e+001  2.896466e+001  5.631659e+001
      vertex  1.854043e+001 -2.831634e+001  5.754665e+001
    endloop
  endfacet
  facet normal  8.073965e-001  3.846634e-008  5.900092e-001
    outer loop
      vertex  1.854043e+001 -2.831634e+001  5.754665e+001
      vertex  1.943930e+001  2.896466e+001  5.631659e+001
      vertex  1.854043e+001  3.019472e+001  5.754665e+001
    endloop
  endfacet
  facet normal  5.784972e-001  5.317949e-008  8.156843e-001
    outer loop
      vertex  1.854043e+001 -2.831634e+001  5.754665e+001
      vertex  1.854043e+001  3.019472e+001  5.754665e+001
      vertex  1.716126e+001 -2.929447e+001  5.852478e+001
    endloop
  endfacet
  facet normal  5.784988e-001  -0.000000e+000  8.156832e-001
    outer loop
      vertex  1.716126e+001 -2.929447e+001  5.852478e+001
      vertex  1.854043e+001  3.019472e+001  5.754665e+001
      vertex  1.716126e+001  3.117285e+001  5.852478e+001
    endloop
  endfacet
  facet normal  2.216390e-001  0.000000e+000  9.751288e-001
    outer loop
      vertex  1.716126e+001 -2.929447e+001  5.852478e+001
      vertex  1.716126e+001  3.117285e+001  5.852478e+001
      vertex  1.500000e+001 -2.978571e+001  5.901601e+001
    endloop
  endfacet
  facet normal  2.216390e-001  -0.000000e+000  9.751288e-001
    outer loop
      vertex  1.500000e+001 -2.978571e+001  5.901601e+001
      vertex  1.716126e+001  3.117285e+001  5.852478e+001
      vertex  1.500000e+001  3.166409e+001  5.901601e+001
    endloop
  endfacet
endsolid CATIA STL
